<svg xmlns="http://www.w3.org/2000/svg" version="1.1" xmlns:xlink="http://www.w3.org/1999/xlink" xmlns:svgjs="http://svgjs.dev/svgjs" width="1440" height="250" preserveAspectRatio="none" viewBox="0 0 1440 250"><g mask="url(&quot;#SvgjsMask1009&quot;)" fill="none"><rect width="1440" height="250" x="0" y="0" fill="rgba(49, 49, 49, 1)"></rect><path d="M5 250L255 0L610.5 0L360.5 250z" fill="url(&quot;#SvgjsLinearGradient1010&quot;)"></path><path d="M248.60000000000002 250L498.6 0L674.1 0L424.1 250z" fill="url(&quot;#SvgjsLinearGradient1010&quot;)"></path><path d="M478.20000000000005 250L728.2 0L819.7 0L569.7 250z" fill="url(&quot;#SvgjsLinearGradient1010&quot;)"></path><path d="M718.8000000000001 250L968.8000000000001 0L1210.3000000000002 0L960.3000000000001 250z" fill="url(&quot;#SvgjsLinearGradient1010&quot;)"></path><path d="M1426 250L1176 0L960 0L1210 250z" fill="url(&quot;#SvgjsLinearGradient1011&quot;)"></path><path d="M1176.4 250L926.4000000000001 0L776.4000000000001 0L1026.4 250z" fill="url(&quot;#SvgjsLinearGradient1011&quot;)"></path><path d="M948.8 250L698.8 0L377.79999999999995 0L627.8 250z" fill="url(&quot;#SvgjsLinearGradient1011&quot;)"></path><path d="M708.1999999999999 250L458.19999999999993 0L254.19999999999993 0L504.19999999999993 250z" fill="url(&quot;#SvgjsLinearGradient1011&quot;)"></path><path d="M1303.7209543893648 250L1440 113.7209543893648L1440 250z" fill="url(&quot;#SvgjsLinearGradient1010&quot;)"></path><path d="M0 250L136.2790456106352 250L 0 113.7209543893648z" fill="url(&quot;#SvgjsLinearGradient1011&quot;)"></path></g><defs><mask id="SvgjsMask1009"><rect width="1440" height="250" fill="#ffffff"></rect></mask><linearGradient x1="0%" y1="100%" x2="100%" y2="0%" id="SvgjsLinearGradient1010"><stop stop-color="rgba(20, 20, 20, 0.2)" offset="0"></stop><stop stop-opacity="0" stop-color="rgba(20, 20, 20, 0.2)" offset="0.66"></stop></linearGradient><linearGradient x1="100%" y1="100%" x2="0%" y2="0%" id="SvgjsLinearGradient1011"><stop stop-color="rgba(20, 20, 20, 0.2)" offset="0"></stop><stop stop-opacity="0" stop-color="rgba(20, 20, 20, 0.2)" offset="0.66"></stop></linearGradient></defs></svg>